<svg xmlns="http://www.w3.org/2000/svg" viewBox="0 35 192 192">
<path fill="#000" transform="translate(0 222.719727)" d="M117.703-84.672C109.625-63.172 97.922-47.609 85.25-35.516 83.141-46.656 81.797-58.375 81.797-70.656l.187-7.875c8.829-3.266 19.97-6.141 32.454-6.141h3.265zm21.875-21.125-15.156-3.828c-.203 3.25-1.156 8.25-2.125 11.125l-.563 1.922-7.109-.188c-9.797 0-21.5 1.72-32.25 4.797.563-8.062 1.14-16.125 1.906-23.609 23.625-1.156 49.157-3.844 69.313-7.297l-.188-14.219c-19.578 4.61-43 7.11-67.39 8.266l2.297-14.594c.578-2.687 1.343-6.14 2.312-8.64l-16.125-.39c.188 2.312-.203 5.765-.39 9.218l-1.532 14.781-13.062.203c-8.25 0-24.953-1.344-31.672-2.5l.375 14.39c7.875.579 22.86 1.344 31.11 1.344l11.718-.187c-.78 9.03-1.734 18.625-2.125 28.234-26.484 12.282-48 37.438-48 62.203 0 16.313 9.985 24.188 22.657 24.188 10.562 0 22.078-4.219 32.64-10.563l3.079 10.75 13.828-4.219c-1.547-4.797-3.078-9.984-4.61-15.547 16.313-13.828 31.875-35.14 42.813-62.406 17.86 5.187 27.64 18.25 27.64 32.828 0 24.97-21.5 42.829-56.25 46.47l8.25 12.859c44.547-7.094 62.797-30.907 62.797-58.547 0-21.125-14.219-38.797-38.219-45.125l.203-.766c.953-3.078 2.688-8.265 3.828-10.953zM68.36-72.578v3.453c0 14.406 1.906 29.953 4.594 43.594-9.781 6.906-19 10.172-26.484 10.172-7.297 0-10.953-4.032-10.953-11.907 0-15.75 14.219-34.75 32.843-45.312z"/>
</svg>
