<svg xmlns="http://www.w3.org/2000/svg" viewBox="0 0 236 96" fill="none" stroke="#000" stroke-width="3" stroke-linecap="round" stroke-linejoin="round"><path d="M4 48h228M59 4v88M118 4v88M177 4v88" opacity=".25"/><path d="M14 15h10v22H14zM18 17v18M33 26h14"/><rect x="72" y="14" width="30" height="24"/><path d="M87 14v24" stroke-width="10"/><path d="M14 59h10l-10 22h10M33 70h14"/><rect x="72" y="57" width="30" height="26"/><path d="M72 67h30" stroke-width="10"/><path d="M132 15h10l-8 10h8l-8 12h10M151 26h14"/><rect x="190" y="14" width="30" height="24"/><path d="M190 14h30M190 14v24" stroke-width="10"/><path d="M132 59h10l-10 13h12M141 57v26M151 70h14"/><rect x="190" y="57" width="30" height="26"/><path d="M190 57h30M190 83h30" stroke-width="10"/></svg>
